<?xml version="1.0" standalone="no"?>
<!DOCTYPE svg PUBLIC "-//W3C//DTD SVG 20010904//EN"
 "http://www.w3.org/TR/2001/REC-SVG-20010904/DTD/svg10.dtd">
<svg version="1.0" xmlns="http://www.w3.org/2000/svg"
 width="252.000000pt" height="120.000000pt" viewBox="0 0 252.000000 120.000000"
 preserveAspectRatio="xMidYMid meet">

<g transform="translate(0.000000,120.000000) scale(0.100000,-0.100000)"
fill="#000000" stroke="none">
<path d="M1059 1152 c-136 -45 -242 -169 -264 -310 -5 -32 -13 -46 -33 -56
-15 -8 -41 -29 -59 -48 -125 -131 -82 -341 87 -417 43 -20 64 -21 555 -21 510
0 511 0 555 23 123 62 147 236 44 327 -19 16 -38 30 -43 30 -5 0 -11 27 -14
60 -9 106 -74 203 -169 251 -50 26 -153 36 -198 20 -31 -10 -33 -9 -81 43 -92
101 -248 141 -380 98z m335 -93 c19 -15 26 -30 26 -53 0 -35 -16 -54 -61 -73
-35 -15 -123 -164 -114 -193 6 -18 15 -20 84 -20 70 0 79 2 99 25 60 69 169
-10 115 -83 -11 -15 -32 -28 -46 -30 -21 -3 -35 -19 -73 -84 -38 -67 -45 -85
-35 -100 20 -32 13 -75 -15 -97 -31 -24 -43 -26 -78 -10 -55 25 -50 96 9 129
34 19 126 165 118 186 -6 17 -173 20 -173 4 0 -19 -49 -42 -75 -36 -35 9 -65
41 -65 70 0 30 34 74 62 78 15 2 37 29 74 92 47 81 51 90 39 113 -24 45 12
100 66 102 9 1 28 -8 43 -20z"/>
<path d="M510 220 c0 -13 7 -20 20 -20 18 0 20 -7 20 -65 0 -58 -2 -65 -20
-65 -13 0 -20 -7 -20 -20 0 -18 7 -20 65 -20 58 0 65 2 65 20 0 13 -7 20 -20
20 -18 0 -20 7 -20 65 0 58 2 65 20 65 13 0 20 7 20 20 0 18 -7 20 -65 20 -58
0 -65 -2 -65 -20z"/>
<path d="M683 230 c-23 -9 -31 -34 -14 -44 5 -4 21 -2 35 4 l26 10 0 -85 c0
-84 0 -85 25 -85 25 0 25 1 25 85 0 83 1 85 21 75 15 -9 24 -8 35 1 13 11 13
14 0 27 -18 19 -120 26 -153 12z"/>
<path d="M1180 135 l0 -105 25 0 c23 0 25 4 25 40 l0 40 40 0 40 0 0 -40 c0
-36 3 -40 25 -40 l25 0 0 105 0 105 -25 0 c-23 0 -25 -4 -25 -45 l0 -45 -40 0
-40 0 0 45 c0 41 -2 45 -25 45 l-25 0 0 -105z"/>
<path d="M1400 182 c0 -70 13 -120 37 -137 11 -8 44 -13 86 -13 l67 0 0 104 0
104 -25 0 c-24 0 -25 -2 -25 -63 0 -68 -18 -107 -50 -107 -28 0 -40 31 -40
104 0 64 -1 66 -25 66 -24 0 -25 -3 -25 -58z"/>
<path d="M1630 134 l0 -104 25 0 c24 0 25 2 25 74 0 77 13 104 45 92 12 -4 15
-23 15 -86 0 -79 0 -80 25 -80 24 0 25 2 25 74 0 77 13 104 45 92 12 -4 15
-23 15 -86 0 -79 0 -80 25 -80 25 0 25 1 25 83 0 100 -14 127 -65 127 -18 0
-40 -7 -48 -15 -13 -12 -17 -12 -27 0 -8 9 -32 14 -71 14 l-59 -1 0 -104z"/>
<path d="M1977 220 c-38 -30 -52 -80 -33 -123 21 -51 50 -66 129 -65 l67 0 0
49 c0 45 -2 49 -24 49 -18 0 -26 -6 -28 -21 -7 -50 -77 -50 -97 -1 -24 58 28
109 84 84 18 -9 26 -8 36 5 34 40 -86 61 -134 23z"/>
<path d="M950 120 c0 -18 7 -20 55 -20 48 0 55 2 55 20 0 18 -7 20 -55 20 -48
0 -55 -2 -55 -20z"/>
</g>
</svg>
